# xmcd CD database file
#
# Track frame offsets:
#	183
#	15085
#	26233
#	40235
#	54478
#	69073
#	83555
#	97890
#	112333
#	126888
#	140193
#	152915
#	167265
#	181885
#	196903
#	211675
#
# Disc length: 3010 seconds
#
# Revision: 0
# Processed by: cddbd v1.5.1PL0 Copyright (c) Steve Scherf et al.
# Submitted via: CDex 1.50Beta7
#
DISCID=c90bc010
DTITLE=Billie Holiday - 1944-1950 The Decca Years
DYEAR=1993
DGENRE=Jazz
TTITLE0=Lover Man
TTITLE1=Big Stuff
TTITLE2=What is This Thing Called Love?
TTITLE3=Baby, I Don't Cry Over You
TTITLE4=I'll Look Around
TTITLE5=Guilty
TTITLE6=Deep Song
TTITLE7=Easy Living
TTITLE8=Solitude
TTITLE9=I Love You Porgy
TTITLE10=Them There Eyes
TTITLE11=My Man
TTITLE12=You Can't Lose A Broken Heart
TTITLE13=My Sweet Hunk O' Trash
TTITLE14=Now or Never
TTITLE15=God Bless The Child
EXTD=YEAR: 1993
EXTT0=
EXTT1=
EXTT2=
EXTT3=
EXTT4=
EXTT5=
EXTT6=
EXTT7=
EXTT8=
EXTT9=
EXTT10=
EXTT11=
EXTT12=
EXTT13=
EXTT14=
EXTT15=
PLAYORDER=
